# xmcd CD database file
#
# Track frame offsets:
#	150
#	18080
#	33417
#	51931
#	68983
#	85911
#	106646
#	128926
#	142954
#	158934
#	173561
#	192999
#	214073
#	233636
#
# Disc length: 3372 seconds
#
# Revision: 0
# Processed by: cddbd v1.5.2PL0 Copyright (c) Steve Scherf et al.
# Submitted via: CdAid (MTCDDB.DLL V2003.12.21)
#
DISCID=b40d2a0e
DTITLE=Mickey Clark - Winding Highways
DYEAR=1999
DGENRE=Country
TTITLE0=Red Velvet Cake
TTITLE1=Bound To Livin' You
TTITLE2=Louise
TTITLE3=In The Blink Of An Eye
TTITLE4=Wyoming Child
TTITLE5=Night Rider's Lament
TTITLE6=Don't Piss On My Boots And Tell Me It's Rainin'
TTITLE7=Where The Green River Flows
TTITLE8=Sarah
TTITLE9=Wendigo
TTITLE10=Rodeo Fool
TTITLE11=Shanty Boat Bill
TTITLE12=Tijuana Tequila
TTITLE13=Goodnight Loving Trail
EXTD=ID3G:   2 YEAR: 1999
EXTT0=
EXTT1=
EXTT2=
EXTT3=
EXTT4=
EXTT5=
EXTT6=
EXTT7=
EXTT8=
EXTT9=
EXTT10=
EXTT11=
EXTT12=
EXTT13=
PLAYORDER=
